Coordinates
version=1
nRows=24
nColumns=24
inDegrees=yes

Units are S.I. units (second, meters, Newtons, ...)
Angles are in degrees.

endheader
time	pelvis_tilt	pelvis_list	pelvis_rotation	pelvis_tx	pelvis_ty	pelvis_tz	hip_flexion_r	hip_adduction_r	hip_rotation_r	knee_angle_r	ankle_angle_r	subtalar_angle_r	mtp_angle_r	hip_flexion_l	hip_adduction_l	hip_rotation_l	knee_angle_l	ankle_angle_l	subtalar_angle_l	mtp_angle_l	lumbar_extension	lumbar_bending	lumbar_rotation
      3.37000000	     -8.38575577	     -4.82384874	    -11.97343797	     -0.53737083	      0.65978874	     -0.22844040	    -18.41799482	      6.58840831	     16.08195039	     -8.75880095	     15.29669217	     -1.84345976	      0.00000000	     32.51557110	     -8.29353636	     13.07790899	      0.28542212	      0.25564430	    -26.22742504	      0.00000000	    -16.46263884	      0.94425833	      8.26080585
      3.38000000	     -7.93809072	     -3.64315917	    -11.66807798	     -0.51996352	      0.65873051	     -0.23001385	    -18.10671590	      5.23057190	     13.77834885	    -12.18162097	     14.64690406	      0.27749157	      0.00000000	     32.87637939	     -6.28606714	     13.08486182	     -2.35316625	     -0.97843756	    -26.35216494	      0.00000000	    -16.68640905	     -0.46857391	      7.55630417
      3.39000000	     -7.52811867	     -2.19574576	    -11.23271027	     -0.50252246	      0.65801519	     -0.23185553	    -17.29662284	      3.61774539	     11.30929461	    -16.24971325	     13.50588971	      2.14555014	      0.00000000	     33.55409752	     -3.84885794	     12.56393787	     -5.76804232	     -2.06056913	    -25.83775290	      0.00000000	    -16.85645036	     -2.15181715	      6.74601327
      3.40000000	     -7.13669474	     -0.63838703	    -10.65288341	     -0.48519717	      0.65749865	     -0.23392369	    -16.06988968	      1.90055557	      8.94869336	    -20.88562780	     11.85631554	      3.51813423	      0.00000000	     34.52656606	     -1.20872274	     11.34234713	     -9.82152465	     -2.58065568	    -24.45153701	      0.00000000	    -17.05643659	     -3.92324273	      5.89109337
      3.41000000	     -7.09757165	      0.72537637	    -10.02332008	     -0.46830724	      0.65669203	     -0.23573408	    -14.15096449	      0.54704406	      7.38381666	    -25.97529011	      9.60444579	      3.76190163	      0.00000000	     36.14105986	      1.06403181	      9.11869851	    -14.44181630	     -1.83503426	    -21.52501569	      0.00000000	    -16.93394802	     -5.43462565	      5.14276557
      3.42000000	     -7.04566844	      1.98226352	     -9.37410375	     -0.45169635	      0.65599356	     -0.23735586	    -11.92800933	     -0.65308501	      6.21970322	    -31.40423941	      7.15618208	      3.47852887	      0.00000000	     37.54374433	      3.05956852	      7.08739648	    -18.80129735	     -0.99543847	    -19.14672815	      0.00000000	    -16.88644314	     -6.84252315	      4.52495233
      3.43000000	     -7.03288485	      3.17018701	     -8.81540006	     -0.43545287	      0.65541935	     -0.23868347	     -9.36474554	     -1.72488736	      5.56584753	    -37.03586656	      4.87586968	      2.85027519	      0.00000000	     38.64340441	      4.76901110	      5.22412096	    -22.61841501	      0.16724131	    -17.21326477	      0.00000000	    -16.79922257	     -8.18561054	      4.09227647
      3.44000000	     -7.04224061	      4.37539130	     -8.36039511	     -0.41955080	      0.65508439	     -0.23979954	     -6.52043107	     -2.78062387	      5.25340663	    -42.70152865	      3.09549135	      2.12366899	      0.00000000	     39.28601384	      6.33629450	      3.66117387	    -25.64676243	      1.73783731	    -15.68574875	      0.00000000	    -16.66368935	     -9.53595115	      3.86249750
      3.45000000	     -7.17019127	      5.51247696	     -7.91902974	     -0.40413566	      0.65505019	     -0.24076449	     -3.37038298	     -3.65661623	      5.27356142	    -48.22557550	      1.95767760	      1.44553452	      0.00000000	     39.58190629	      7.73739327	      2.28813277	    -27.87542822	      3.59491441	    -14.37427442	      0.00000000	    -16.41059724	    -10.75944398	      3.58759549
      3.46000000	     -7.27469405	      6.65154377	     -7.46414043	     -0.38898791	      0.65561911	     -0.24173970	     -0.14684205	     -4.51086776	      5.41756260	    -53.41582259	      1.60218801	      1.06921473	      0.00000000	     39.29525748	      9.14837484	      1.26515371	    -29.18230517	      5.66566426	    -13.20054139	      0.00000000	    -16.15965891	    -11.91721695	      3.25148276
      3.47000000	     -7.64627659	      7.62463072	     -6.96718392	     -0.37422065	      0.65652224	     -0.24262882	      3.42381573	     -5.09323021	      5.65193215	    -58.16944243	      1.87139362	      0.68601128	      0.00000000	     38.82639396	     10.36211500	      0.48893618	    -29.75027668	      7.79052412	    -12.05686947	      0.00000000	    -15.57078272	    -12.80368153	      2.88778873
      3.48000000	     -7.62791871	      8.53030043	     -6.43818440	     -0.35949835	      0.65865924	     -0.24360656	      6.50664422	     -5.69742934	      5.85355576	    -62.26082694	      2.89176917	      0.88621642	      0.00000000	     37.41226122	     11.64486812	      0.09934202	    -29.47765544	      9.76158694	    -11.01376873	      0.00000000	    -15.47469380	    -13.57205352	      2.33185287
      3.49000000	     -7.75044954	      9.22668550	     -5.93818777	     -0.34490551	      0.66130942	     -0.24448580	      9.70109366	     -6.05882916	      6.07403123	    -65.69839289	      4.26515954	      0.98963253	      0.00000000	     35.73695494	     12.71914379	      0.12736205	    -28.61414430	     11.48042939	    -10.01954104	      0.00000000	    -15.14229455	    -14.06613043	      2.00018191
      3.50000000	     -7.76765638	      9.65931712	     -5.39043024	     -0.33030211	      0.66470697	     -0.24541035	     12.64340580	     -6.18990629	      6.18209725	    -68.38511883	      5.82957563	      1.15068782	      0.00000000	     33.59040402	     13.62327806	      0.64723582	    -27.26947804	     12.80452328	     -9.24764310	      0.00000000	    -14.94307182	    -14.21283531	      1.56025405
      3.51000000	     -7.72225951	      9.81155172	     -4.85062730	     -0.31567709	      0.66860922	     -0.24626374	     15.37669681	     -6.06659135	      6.16618957	    -70.33510493	      7.40276110	      1.11423362	      0.00000000	     31.11825377	     14.26311657	      1.58488555	    -25.61227465	     13.82098103	     -8.62727793	      0.00000000	    -14.79578420	    -14.03578869	      1.23708928
      3.52000000	     -7.70482981	      9.74079921	     -4.40723222	     -0.30106790	      0.67273187	     -0.24714326	     18.03384574	     -5.72517891	      6.21091123	    -71.63990336	      9.02591508	      1.26600101	      0.00000000	     28.46112106	     14.68060750	      3.09230848	    -23.64727018	     14.21142150	     -8.74868877	      0.00000000	    -14.59446446	    -13.56418589	      0.91994902
      3.53000000	     -7.61789262	      9.40619050	     -3.98215578	     -0.28639016	      0.67702308	     -0.24794165	     20.42970438	     -5.14484451	      6.08548505	    -72.24171063	     10.39197991	      0.90523687	      0.00000000	     25.57539235	     14.82032324	      5.15211068	    -21.50862348	     14.21449474	     -9.42599091	      0.00000000	    -14.47368757	    -12.80655221	      0.71232571
      3.54000000	     -7.50074361	      8.87571003	     -3.61916419	     -0.27167839	      0.68124855	     -0.24859938	     22.62942500	     -4.37181161	      5.89579531	    -72.23054273	     11.52663760	      0.24001864	      0.00000000	     22.56369433	     14.67877888	      7.59734516	    -19.23196979	     13.84345915	    -10.67971783	      0.00000000	    -14.39879359	    -11.84530700	      0.54808488
      3.55000000	     -7.32384570	      8.22355159	     -3.33038798	     -0.25685075	      0.68531523	     -0.24913120	     24.58192586	     -3.49723109	      5.66972822	    -71.63901241	     12.51671292	     -0.63253470	      0.00000000	     19.38319600	     14.31162003	     10.47758539	    -16.76674077	     12.96403201	    -12.70912191	      0.00000000	    -14.38255065	    -10.77757772	      0.47868728
      3.56000000	     -7.15800671	      7.41784858	     -3.08655025	     -0.24206124	      0.68898040	     -0.24949820	     26.39114219	     -2.46755982	      5.39218774	    -70.54793681	     13.18955188	     -1.76774717	      0.00000000	     16.18058360	     13.64353984	     13.66925457	    -14.19550118	     11.73214983	    -15.43194960	      0.00000000	    -14.40203273	     -9.55007177	      0.36541245
      3.57000000	     -6.96076329	      6.45960286	     -2.93575941	     -0.22733690	      0.69221774	     -0.24965357	     27.99528056	     -1.25953160	      5.14226715	    -68.96317027	     13.63993141	     -3.02137752	      0.00000000	     12.96158633	     12.65319765	     16.95648993	    -11.55043260	     10.01227268	    -19.02736937	      0.00000000	    -14.52855853	     -8.16439509	      0.20266686
      3.58000000	     -6.86027943	      5.46819600	     -2.74544247	     -0.21271147	      0.69480072	     -0.24953606	     29.54964767	     -0.03962755	      4.79593503	    -66.93528860	     13.74023534	     -4.65034395	      0.00000000	      9.97681423	     11.45379244	     19.91507922	     -9.00238914	      8.17087024	    -22.57473997	      0.00000000	    -14.59343323	     -6.80977390	      0.00319131
      3.59000000	     -6.87740329	      4.45705835	     -2.30559786	     -0.19829618	      0.69665615	     -0.24952291	     31.04943880	      1.03780271	      4.21257523	    -64.47108564	     13.73227238	     -6.30579621	      0.00000000	      7.41042713	     10.18314019	     22.39129111	     -6.85803809	      6.73481666	    -25.45810750	      0.00000000	    -14.61797634	     -5.43048463	     -0.50857734
      3.60000000	     -6.90903170	      3.56353578	     -1.91955259	     -0.18399282	      0.69789793	     -0.24930674	     32.44505754	      1.97123109	      3.72505835	    -61.63490440	     13.52243429	     -7.94570896	      0.00000000	      5.07231572	      8.98063152	     24.13668409	     -4.94169740	      5.48389325	    -27.92379750	      0.00000000	    -14.65798092	     -4.23285359	     -1.03748501
